# 3ds Max Wavefront OBJ Exporter v0.97b - (c)2007 guruware
# File Created: 20.12.2017 10:11:21

#
# object Line001
#

v  0.4396 0.0999 0.0266
v  0.3527 0.2540 0.0266
v  0.3527 0.2540 0.1166
v  0.4396 0.0999 0.1166
v  0.1405 0.3408 0.0266
v  0.1405 0.3408 0.1166
v  -0.1329 0.3408 0.0266
v  -0.1329 0.3408 0.1166
v  -0.3581 0.2604 0.0266
v  -0.3581 0.2604 0.1166
v  -0.4417 0.0996 0.0266
v  -0.4417 0.0996 0.1166
v  0.4396 0.0999 -0.1176
v  0.3527 0.2540 -0.1176
v  0.3527 0.2540 -0.0276
v  0.4396 0.0999 -0.0276
v  0.1405 0.3408 -0.1176
v  0.1405 0.3408 -0.0276
v  -0.1329 0.3408 -0.1176
v  -0.1329 0.3408 -0.0276
v  -0.3581 0.2604 -0.1176
v  -0.3581 0.2604 -0.0276
v  -0.4417 0.0996 -0.1176
v  -0.4417 0.0996 -0.0276
v  -0.5000 0.0000 0.2500
v  -0.5000 -0.0000 -0.2500
v  0.5000 -0.0000 -0.2500
v  0.5000 0.0000 0.2500
v  -0.5000 0.1000 0.2500
v  0.5000 0.1000 0.2500
v  0.5000 0.1000 -0.2500
v  -0.5000 0.1000 -0.2500
# 32 vertices

vn 0.8711 0.4911 0.0000
vn 0.3786 0.9255 0.0000
vn 0.0000 1.0000 0.0000
vn -0.3363 0.9417 0.0000
vn -0.8872 0.4614 0.0000
vn 0.0004 -1.0000 -0.0000
vn 0.0000 0.0000 -1.0000
vn 0.0000 -0.0000 1.0000
vn -0.0000 0.0000 -1.0000
vn -0.0000 -0.0000 1.0000
vn 0.0000 -1.0000 0.0000
vn 1.0000 0.0000 -0.0000
vn -1.0000 0.0000 -0.0000
# 13 vertex normals

vt 0.4396 -0.1332 0.0000
vt 0.3527 0.0209 0.0000
vt 0.1405 0.1078 0.0000
vt -0.1329 0.1078 0.0000
vt -0.3581 0.0273 0.0000
vt -0.4417 -0.1335 0.0000
vt 0.4396 -0.1332 0.0900
vt 0.3527 0.0209 0.0900
vt 0.1405 0.1078 0.0900
vt -0.1329 0.1078 0.0900
vt -0.3581 0.0273 0.0900
vt -0.4417 -0.1335 0.0900
vt 0.4396 -0.1332 -0.1442
vt 0.3527 0.0209 -0.1442
vt 0.1405 0.1078 -0.1442
vt -0.1329 0.1078 -0.1442
vt -0.3581 0.0273 -0.1442
vt -0.4417 -0.1335 -0.1442
vt 0.4396 -0.1332 -0.0542
vt 0.3527 0.0209 -0.0542
vt 0.1405 0.1078 -0.0542
vt -0.1329 0.1078 -0.0542
vt -0.3581 0.0273 -0.0542
vt -0.4417 -0.1335 -0.0542
vt 0.0000 0.0000 0.0000
vt 1.0000 0.0000 0.0000
vt 0.0000 1.0000 0.0000
vt 1.0000 1.0000 0.0000
vt 0.0000 0.0000 0.0000
vt 1.0000 0.0000 0.0000
vt 0.0000 1.0000 0.0000
vt 1.0000 1.0000 0.0000
vt 0.0000 0.0000 0.0000
vt 1.0000 0.0000 0.0000
vt 0.0000 1.0000 0.0000
vt 1.0000 1.0000 0.0000
# 36 texture coords

o Line001
g Line001
f 1/1/1 2/2/1 3/8/1 
f 1/1/1 3/8/1 4/7/1 
f 2/2/2 5/3/2 6/9/2 
f 2/2/2 6/9/2 3/8/2 
f 5/3/3 7/4/3 8/10/3 
f 5/3/3 8/10/3 6/9/3 
f 7/4/4 9/5/4 10/11/4 
f 7/4/4 10/11/4 8/10/4 
f 9/5/5 11/6/5 12/12/5 
f 9/5/5 12/12/5 10/11/5 
f 11/6/6 1/1/6 4/7/6 
f 11/6/6 4/7/6 12/12/6 
f 11/6/7 2/2/7 1/1/7 
f 11/6/7 5/3/7 2/2/7 
f 11/6/7 7/4/7 5/3/7 
f 11/6/7 9/5/7 7/4/7 
f 12/12/8 4/7/8 3/8/8 
f 12/12/8 3/8/8 6/9/8 
f 12/12/8 6/9/8 8/10/8 
f 12/12/8 8/10/8 10/11/8 
f 13/13/1 14/14/1 15/20/1 
f 13/13/1 15/20/1 16/19/1 
f 14/14/2 17/15/2 18/21/2 
f 14/14/2 18/21/2 15/20/2 
f 17/15/3 19/16/3 20/22/3 
f 17/15/3 20/22/3 18/21/3 
f 19/16/4 21/17/4 22/23/4 
f 19/16/4 22/23/4 20/22/4 
f 21/17/5 23/18/5 24/24/5 
f 21/17/5 24/24/5 22/23/5 
f 23/18/6 13/13/6 16/19/6 
f 23/18/6 16/19/6 24/24/6 
f 23/18/9 14/14/9 13/13/7 
f 23/18/9 17/15/9 14/14/9 
f 23/18/9 19/16/9 17/15/9 
f 23/18/9 21/17/9 19/16/9 
f 24/24/10 16/19/10 15/20/10 
f 24/24/10 15/20/10 18/21/10 
f 24/24/10 18/21/10 20/22/8 
f 24/24/10 20/22/8 22/23/8 
f 25/34/11 26/36/11 27/35/11 
f 27/35/11 28/33/11 25/34/11 
f 29/33/3 30/34/3 31/36/3 
f 31/36/3 32/35/3 29/33/3 
f 25/29/8 28/30/8 30/32/8 
f 30/32/8 29/31/8 25/29/8 
f 28/25/12 27/26/12 31/28/12 
f 31/28/12 30/27/12 28/25/12 
f 27/29/7 26/30/7 32/32/7 
f 32/32/7 31/31/7 27/29/7 
f 26/25/13 25/26/13 29/28/13 
f 29/28/13 32/27/13 26/25/13 
# 52 faces

