# 3ds Max Wavefront OBJ Exporter v0.97b - (c)2007 guruware
# File Created: 21.12.2017 15:45:16

#
# object Box001
#

v  -0.4889 0.4998 0.0623
v  -0.4889 0.2231 0.0623
v  0.4889 0.4998 0.0623
v  0.4889 0.2231 0.0623
v  0.4889 0.2231 -0.0605
v  -0.4889 0.2231 -0.0605
v  0.4889 0.4998 -0.0605
v  -0.4889 0.4998 -0.0605
v  0.0000 -0.3689 -0.0000
v  0.0470 -0.3689 -0.0171
v  0.0500 -0.3689 -0.0000
v  0.0383 -0.3689 -0.0321
v  0.0250 -0.3689 -0.0433
v  0.0087 -0.3689 -0.0492
v  -0.0087 -0.3689 -0.0492
v  -0.0250 -0.3689 -0.0433
v  -0.0383 -0.3689 -0.0321
v  -0.0470 -0.3689 -0.0171
v  -0.0500 -0.3689 -0.0000
v  -0.0470 -0.3689 0.0171
v  -0.0383 -0.3689 0.0321
v  -0.0250 -0.3689 0.0433
v  -0.0087 -0.3689 0.0492
v  0.0087 -0.3689 0.0492
v  0.0250 -0.3689 0.0433
v  0.0383 -0.3689 0.0321
v  0.0470 -0.3689 0.0171
v  0.0470 -0.2489 -0.0171
v  0.0500 -0.2489 -0.0000
v  0.0383 -0.2489 -0.0321
v  0.0250 -0.2489 -0.0433
v  0.0087 -0.2489 -0.0492
v  -0.0087 -0.2489 -0.0492
v  -0.0250 -0.2489 -0.0433
v  -0.0383 -0.2489 -0.0321
v  -0.0470 -0.2489 -0.0171
v  -0.0500 -0.2489 -0.0000
v  -0.0470 -0.2489 0.0171
v  -0.0383 -0.2489 0.0321
v  -0.0250 -0.2489 0.0433
v  -0.0087 -0.2489 0.0492
v  0.0087 -0.2489 0.0492
v  0.0250 -0.2489 0.0433
v  0.0383 -0.2489 0.0321
v  0.0470 -0.2489 0.0171
v  0.0470 -0.1289 -0.0171
v  0.0500 -0.1289 0.0000
v  0.0383 -0.1289 -0.0321
v  0.0250 -0.1289 -0.0433
v  0.0087 -0.1289 -0.0492
v  -0.0087 -0.1289 -0.0492
v  -0.0250 -0.1289 -0.0433
v  -0.0383 -0.1289 -0.0321
v  -0.0470 -0.1289 -0.0171
v  -0.0500 -0.1289 -0.0000
v  -0.0470 -0.1289 0.0171
v  -0.0383 -0.1289 0.0321
v  -0.0250 -0.1289 0.0433
v  -0.0087 -0.1289 0.0492
v  0.0087 -0.1289 0.0492
v  0.0250 -0.1289 0.0433
v  0.0383 -0.1289 0.0321
v  0.0470 -0.1289 0.0171
v  0.0470 -0.0089 -0.0171
v  0.0500 -0.0089 -0.0000
v  0.0383 -0.0089 -0.0321
v  0.0250 -0.0089 -0.0433
v  0.0087 -0.0089 -0.0492
v  -0.0087 -0.0089 -0.0492
v  -0.0250 -0.0089 -0.0433
v  -0.0383 -0.0089 -0.0321
v  -0.0470 -0.0089 -0.0171
v  -0.0500 -0.0089 -0.0000
v  -0.0470 -0.0089 0.0171
v  -0.0383 -0.0089 0.0321
v  -0.0250 -0.0089 0.0433
v  -0.0087 -0.0089 0.0492
v  0.0087 -0.0089 0.0492
v  0.0250 -0.0089 0.0433
v  0.0383 -0.0089 0.0321
v  0.0470 -0.0089 0.0171
v  0.0470 0.1111 -0.0171
v  0.0500 0.1111 -0.0000
v  0.0383 0.1111 -0.0321
v  0.0250 0.1111 -0.0433
v  0.0087 0.1111 -0.0492
v  -0.0087 0.1111 -0.0492
v  -0.0250 0.1111 -0.0433
v  -0.0383 0.1111 -0.0321
v  -0.0470 0.1111 -0.0171
v  -0.0500 0.1111 -0.0000
v  -0.0470 0.1111 0.0171
v  -0.0383 0.1111 0.0321
v  -0.0250 0.1111 0.0433
v  -0.0087 0.1111 0.0492
v  0.0087 0.1111 0.0492
v  0.0250 0.1111 0.0433
v  0.0383 0.1111 0.0321
v  0.0470 0.1111 0.0171
v  0.0470 0.2311 -0.0171
v  0.0500 0.2311 -0.0000
v  0.0383 0.2311 -0.0321
v  0.0250 0.2311 -0.0433
v  0.0087 0.2311 -0.0492
v  -0.0087 0.2311 -0.0492
v  -0.0250 0.2311 -0.0433
v  -0.0383 0.2311 -0.0321
v  -0.0470 0.2311 -0.0171
v  -0.0500 0.2311 -0.0000
v  -0.0470 0.2311 0.0171
v  -0.0383 0.2311 0.0321
v  -0.0250 0.2311 0.0433
v  -0.0087 0.2311 0.0492
v  0.0087 0.2311 0.0492
v  0.0250 0.2311 0.0433
v  0.0383 0.2311 0.0321
v  0.0470 0.2311 0.0171
v  0.0000 0.2311 -0.0000
# 118 vertices

vn 0.0000 -0.0000 1.0000
vn 0.0000 0.0000 -1.0000
vn 0.0000 -1.0000 -0.0000
vn 1.0000 0.0000 -0.0000
vn 0.0000 1.0000 0.0000
vn -1.0000 0.0000 -0.0000
vn 1.0000 -0.0000 0.0000
vn 0.9397 -0.0000 -0.3420
vn 0.7660 -0.0000 -0.6428
vn 0.5000 -0.0000 -0.8660
vn 0.1736 -0.0000 -0.9848
vn 0.1736 0.0000 -0.9848
vn -0.1736 0.0000 -0.9848
vn -0.1736 -0.0000 -0.9848
vn -0.5000 -0.0000 -0.8660
vn -0.7660 0.0000 -0.6428
vn -0.7660 -0.0000 -0.6428
vn -0.9397 -0.0000 -0.3420
vn -1.0000 -0.0000 -0.0000
vn -0.9397 -0.0000 0.3420
vn -0.7660 -0.0000 0.6428
vn -0.5000 -0.0000 0.8660
vn -0.1736 -0.0000 0.9848
vn 0.1736 -0.0000 0.9848
vn 0.5000 -0.0000 0.8660
vn 0.7660 -0.0000 0.6428
vn 0.9397 -0.0000 0.3420
vn 0.9397 0.0000 -0.3420
vn 1.0000 0.0000 0.0000
vn 0.7660 0.0000 -0.6428
vn 0.5000 0.0000 -0.8660
vn -0.5000 0.0000 -0.8660
vn -0.9397 0.0000 -0.3420
vn -0.9397 0.0000 0.3420
vn -0.7660 0.0000 0.6428
vn -0.5000 0.0000 0.8660
vn -0.1736 0.0000 0.9848
vn 0.1736 0.0000 0.9848
vn 0.5000 0.0000 0.8660
vn 0.7660 0.0000 0.6428
vn 0.9397 0.0000 0.3420
# 41 vertex normals

vt 0.0000 0.0000 0.0000
vt 1.0000 0.0000 0.0000
vt 0.0000 1.0000 0.0000
vt 1.0000 1.0000 0.0000
vt 0.0000 0.0000 0.0000
vt 1.0000 0.0000 0.0000
vt 0.0000 1.0000 0.0000
vt 1.0000 1.0000 0.0000
vt 0.0000 0.0000 0.0000
vt 1.0000 0.0000 0.0000
vt 0.0000 1.0000 0.0000
vt 1.0000 1.0000 0.0000
vt 0.5000 0.0000 0.0000
vt 0.7500 0.0000 1.0000
vt 0.8056 0.0000 1.0000
vt 0.8611 0.0000 1.0000
vt 0.9167 0.0000 1.0000
vt 0.9722 0.0000 1.0000
vt 0.0278 0.0000 1.0000
vt 0.0833 0.0000 1.0000
vt 0.1389 0.0000 1.0000
vt 0.1944 0.0000 1.0000
vt 0.2500 0.0000 1.0000
vt 0.3056 0.0000 1.0000
vt 0.3611 0.0000 1.0000
vt 0.4167 0.0000 1.0000
vt 0.4722 0.0000 1.0000
vt 0.5278 0.0000 1.0000
vt 0.5833 0.0000 1.0000
vt 0.6389 0.0000 1.0000
vt 0.6944 0.0000 1.0000
vt 0.7500 0.2000 1.0000
vt 0.8056 0.2000 1.0000
vt 0.8611 0.2000 1.0000
vt 0.9167 0.2000 1.0000
vt 0.9722 0.2000 1.0000
vt 0.0278 0.2000 1.0000
vt 0.0833 0.2000 1.0000
vt 0.1389 0.2000 1.0000
vt 0.1944 0.2000 1.0000
vt 0.2500 0.2000 1.0000
vt 0.3056 0.2000 1.0000
vt 0.3611 0.2000 1.0000
vt 0.4167 0.2000 1.0000
vt 0.4722 0.2000 1.0000
vt 0.5278 0.2000 1.0000
vt 0.5833 0.2000 1.0000
vt 0.6389 0.2000 1.0000
vt 0.6944 0.2000 1.0000
vt 0.7500 0.4000 1.0000
vt 0.8056 0.4000 1.0000
vt 0.8611 0.4000 1.0000
vt 0.9167 0.4000 1.0000
vt 0.9722 0.4000 1.0000
vt 0.0278 0.4000 1.0000
vt 0.0833 0.4000 1.0000
vt 0.1389 0.4000 1.0000
vt 0.1944 0.4000 1.0000
vt 0.2500 0.4000 1.0000
vt 0.3056 0.4000 1.0000
vt 0.3611 0.4000 1.0000
vt 0.4167 0.4000 1.0000
vt 0.4722 0.4000 1.0000
vt 0.5278 0.4000 1.0000
vt 0.5833 0.4000 1.0000
vt 0.6389 0.4000 1.0000
vt 0.6944 0.4000 1.0000
vt 0.7500 0.6000 1.0000
vt 0.8056 0.6000 1.0000
vt 0.8611 0.6000 1.0000
vt 0.9167 0.6000 1.0000
vt 0.9722 0.6000 1.0000
vt 0.0278 0.6000 1.0000
vt 0.0833 0.6000 1.0000
vt 0.1389 0.6000 1.0000
vt 0.1944 0.6000 1.0000
vt 0.2500 0.6000 1.0000
vt 0.3056 0.6000 1.0000
vt 0.3611 0.6000 1.0000
vt 0.4167 0.6000 1.0000
vt 0.4722 0.6000 1.0000
vt 0.5278 0.6000 1.0000
vt 0.5833 0.6000 1.0000
vt 0.6389 0.6000 1.0000
vt 0.6944 0.6000 1.0000
vt 0.7500 0.8000 1.0000
vt 0.8056 0.8000 1.0000
vt 0.8611 0.8000 1.0000
vt 0.9167 0.8000 1.0000
vt 0.9722 0.8000 1.0000
vt 0.0278 0.8000 1.0000
vt 0.0833 0.8000 1.0000
vt 0.1389 0.8000 1.0000
vt 0.1944 0.8000 1.0000
vt 0.2500 0.8000 1.0000
vt 0.3056 0.8000 1.0000
vt 0.3611 0.8000 1.0000
vt 0.4167 0.8000 1.0000
vt 0.4722 0.8000 1.0000
vt 0.5278 0.8000 1.0000
vt 0.5833 0.8000 1.0000
vt 0.6389 0.8000 1.0000
vt 0.6944 0.8000 1.0000
vt 0.7500 1.0000 1.0000
vt 0.8056 1.0000 1.0000
vt 0.8611 1.0000 1.0000
vt 0.9167 1.0000 1.0000
vt 0.9722 1.0000 1.0000
vt 0.0278 1.0000 1.0000
vt 0.0833 1.0000 1.0000
vt 0.1389 1.0000 1.0000
vt 0.1944 1.0000 1.0000
vt 0.2500 1.0000 1.0000
vt 0.3056 1.0000 1.0000
vt 0.3611 1.0000 1.0000
vt 0.4167 1.0000 1.0000
vt 0.4722 1.0000 1.0000
vt 0.5278 1.0000 1.0000
vt 0.5833 1.0000 1.0000
vt 0.6389 1.0000 1.0000
vt 0.6944 1.0000 1.0000
vt 0.5000 1.0000 0.0000
vt -0.0278 0.0000 1.0000
vt -0.0278 0.0000 1.0000
vt -0.0278 0.2000 1.0000
vt -0.0278 0.0000 1.0000
vt -0.0278 0.2000 1.0000
vt -0.0278 0.4000 1.0000
vt -0.0278 0.2000 1.0000
vt -0.0278 0.4000 1.0000
vt -0.0278 0.6000 1.0000
vt -0.0278 0.4000 1.0000
vt -0.0278 0.6000 1.0000
vt -0.0278 0.8000 1.0000
vt -0.0278 0.6000 1.0000
vt -0.0278 0.8000 1.0000
vt -0.0278 1.0000 1.0000
vt -0.0278 0.8000 1.0000
vt -0.0278 1.0000 1.0000
# 139 texture coords

o Box001
g Box001
f 1/11/1 2/9/1 3/12/1 
f 4/10/1 3/12/1 2/9/1 
f 5/9/2 6/10/2 7/11/2 
f 8/12/2 7/11/2 6/10/2 
f 4/6/3 2/5/3 5/8/3 
f 6/7/3 5/8/3 2/5/3 
f 3/2/4 4/1/4 7/4/4 
f 5/3/4 7/4/4 4/1/4 
f 1/6/5 3/5/5 8/8/5 
f 7/7/5 8/8/5 3/5/5 
f 2/2/6 1/1/6 6/4/6 
f 8/3/6 6/4/6 1/1/6 
f 9/13/3 10/15/3 11/14/3 
f 9/13/3 12/16/3 10/15/3 
f 9/13/3 13/17/3 12/16/3 
f 9/13/3 14/18/3 13/17/3 
f 9/13/3 15/19/3 14/123/3 
f 9/13/3 16/20/3 15/19/3 
f 9/13/3 17/21/3 16/20/3 
f 9/13/3 18/22/3 17/21/3 
f 9/13/3 19/23/3 18/22/3 
f 9/13/3 20/24/3 19/23/3 
f 9/13/3 21/25/3 20/24/3 
f 9/13/3 22/26/3 21/25/3 
f 9/13/3 23/27/3 22/26/3 
f 9/13/3 24/28/3 23/27/3 
f 9/13/3 25/29/3 24/28/3 
f 9/13/3 26/30/3 25/29/3 
f 9/13/3 27/31/3 26/30/3 
f 9/13/3 11/14/3 27/31/3 
f 11/14/7 28/33/8 29/32/7 
f 11/14/7 10/15/8 28/33/8 
f 10/15/8 30/34/9 28/33/8 
f 10/15/8 12/16/9 30/34/9 
f 12/16/9 31/35/10 30/34/9 
f 12/16/9 13/17/10 31/35/10 
f 13/17/10 32/36/11 31/35/10 
f 13/17/10 14/18/12 32/36/11 
f 14/124/12 33/37/13 32/125/11 
f 14/126/12 15/19/14 33/37/13 
f 15/19/14 34/38/15 33/37/13 
f 15/19/14 16/20/15 34/38/15 
f 16/20/15 35/39/16 34/38/15 
f 16/20/15 17/21/17 35/39/16 
f 17/21/17 36/40/18 35/39/16 
f 17/21/17 18/22/18 36/40/18 
f 18/22/18 37/41/19 36/40/18 
f 18/22/18 19/23/19 37/41/19 
f 19/23/19 38/42/20 37/41/19 
f 19/23/19 20/24/20 38/42/20 
f 20/24/20 39/43/21 38/42/20 
f 20/24/20 21/25/21 39/43/21 
f 21/25/21 40/44/22 39/43/21 
f 21/25/21 22/26/22 40/44/22 
f 22/26/22 41/45/23 40/44/22 
f 22/26/22 23/27/23 41/45/23 
f 23/27/23 42/46/24 41/45/23 
f 23/27/23 24/28/24 42/46/24 
f 24/28/24 43/47/25 42/46/24 
f 24/28/24 25/29/25 43/47/25 
f 25/29/25 44/48/26 43/47/25 
f 25/29/25 26/30/26 44/48/26 
f 26/30/26 45/49/27 44/48/26 
f 26/30/26 27/31/27 45/49/27 
f 27/31/27 29/32/7 45/49/27 
f 27/31/27 11/14/7 29/32/7 
f 29/32/7 46/51/28 47/50/29 
f 29/32/7 28/33/8 46/51/28 
f 28/33/8 48/52/30 46/51/28 
f 28/33/8 30/34/9 48/52/30 
f 30/34/9 49/53/31 48/52/30 
f 30/34/9 31/35/10 49/53/31 
f 31/35/10 50/54/11 49/53/31 
f 31/35/10 32/36/11 50/54/11 
f 32/127/11 51/55/13 50/128/11 
f 32/129/11 33/37/13 51/55/13 
f 33/37/13 52/56/32 51/55/13 
f 33/37/13 34/38/15 52/56/32 
f 34/38/15 53/57/16 52/56/32 
f 34/38/15 35/39/16 53/57/16 
f 35/39/16 54/58/33 53/57/16 
f 35/39/16 36/40/18 54/58/33 
f 36/40/18 55/59/6 54/58/33 
f 36/40/18 37/41/19 55/59/6 
f 37/41/19 56/60/34 55/59/6 
f 37/41/19 38/42/20 56/60/34 
f 38/42/20 57/61/35 56/60/34 
f 38/42/20 39/43/21 57/61/35 
f 39/43/21 58/62/36 57/61/35 
f 39/43/21 40/44/22 58/62/36 
f 40/44/22 59/63/37 58/62/36 
f 40/44/22 41/45/23 59/63/37 
f 41/45/23 60/64/38 59/63/37 
f 41/45/23 42/46/24 60/64/38 
f 42/46/24 61/65/39 60/64/38 
f 42/46/24 43/47/25 61/65/39 
f 43/47/25 62/66/40 61/65/39 
f 43/47/25 44/48/26 62/66/40 
f 44/48/26 63/67/41 62/66/40 
f 44/48/26 45/49/27 63/67/41 
f 45/49/27 47/50/29 63/67/41 
f 45/49/27 29/32/7 47/50/29 
f 47/50/29 64/69/28 65/68/7 
f 47/50/29 46/51/28 64/69/28 
f 46/51/28 66/70/9 64/69/28 
f 46/51/28 48/52/30 66/70/9 
f 48/52/30 67/71/10 66/70/9 
f 48/52/30 49/53/31 67/71/10 
f 49/53/31 68/72/12 67/71/10 
f 49/53/31 50/54/11 68/72/12 
f 50/130/11 69/73/14 68/131/12 
f 50/132/11 51/55/13 69/73/14 
f 51/55/13 70/74/15 69/73/14 
f 51/55/13 52/56/32 70/74/15 
f 52/56/32 71/75/17 70/74/15 
f 52/56/32 53/57/16 71/75/17 
f 53/57/16 72/76/18 71/75/17 
f 53/57/16 54/58/33 72/76/18 
f 54/58/33 73/77/19 72/76/18 
f 54/58/33 55/59/6 73/77/19 
f 55/59/6 74/78/20 73/77/19 
f 55/59/6 56/60/34 74/78/20 
f 56/60/34 75/79/35 74/78/20 
f 56/60/34 57/61/35 75/79/35 
f 57/61/35 76/80/36 75/79/35 
f 57/61/35 58/62/36 76/80/36 
f 58/62/36 77/81/37 76/80/36 
f 58/62/36 59/63/37 77/81/37 
f 59/63/37 78/82/38 77/81/37 
f 59/63/37 60/64/38 78/82/38 
f 60/64/38 79/83/39 78/82/38 
f 60/64/38 61/65/39 79/83/39 
f 61/65/39 80/84/40 79/83/39 
f 61/65/39 62/66/40 80/84/40 
f 62/66/40 81/85/41 80/84/40 
f 62/66/40 63/67/41 81/85/41 
f 63/67/41 65/68/7 81/85/41 
f 63/67/41 47/50/29 65/68/7 
f 65/68/7 82/87/8 83/86/7 
f 65/68/7 64/69/28 82/87/8 
f 64/69/28 84/88/30 82/87/8 
f 64/69/28 66/70/9 84/88/30 
f 66/70/9 85/89/10 84/88/30 
f 66/70/9 67/71/10 85/89/10 
f 67/71/10 86/90/12 85/89/10 
f 67/71/10 68/72/12 86/90/12 
f 68/133/12 87/91/13 86/134/12 
f 68/135/12 69/73/14 87/91/13 
f 69/73/14 88/92/32 87/91/13 
f 69/73/14 70/74/15 88/92/32 
f 70/74/15 89/93/16 88/92/32 
f 70/74/15 71/75/17 89/93/16 
f 71/75/17 90/94/33 89/93/16 
f 71/75/17 72/76/18 90/94/33 
f 72/76/18 91/95/19 90/94/33 
f 72/76/18 73/77/19 91/95/19 
f 73/77/19 92/96/20 91/95/19 
f 73/77/19 74/78/20 92/96/20 
f 74/78/20 93/97/21 92/96/20 
f 74/78/20 75/79/35 93/97/21 
f 75/79/35 94/98/22 93/97/21 
f 75/79/35 76/80/36 94/98/22 
f 76/80/36 95/99/23 94/98/22 
f 76/80/36 77/81/37 95/99/23 
f 77/81/37 96/100/24 95/99/23 
f 77/81/37 78/82/38 96/100/24 
f 78/82/38 97/101/25 96/100/24 
f 78/82/38 79/83/39 97/101/25 
f 79/83/39 98/102/26 97/101/25 
f 79/83/39 80/84/40 98/102/26 
f 80/84/40 99/103/27 98/102/26 
f 80/84/40 81/85/41 99/103/27 
f 81/85/41 83/86/7 99/103/27 
f 81/85/41 65/68/7 83/86/7 
f 83/86/7 100/105/28 101/104/29 
f 83/86/7 82/87/8 100/105/28 
f 82/87/8 102/106/30 100/105/28 
f 82/87/8 84/88/30 102/106/30 
f 84/88/30 103/107/31 102/106/30 
f 84/88/30 85/89/10 103/107/31 
f 85/89/10 104/108/12 103/107/31 
f 85/89/10 86/90/12 104/108/12 
f 86/136/12 105/109/13 104/137/12 
f 86/138/12 87/91/13 105/109/13 
f 87/91/13 106/110/32 105/109/13 
f 87/91/13 88/92/32 106/110/32 
f 88/92/32 107/111/16 106/110/32 
f 88/92/32 89/93/16 107/111/16 
f 89/93/16 108/112/33 107/111/16 
f 89/93/16 90/94/33 108/112/33 
f 90/94/33 109/113/6 108/112/33 
f 90/94/33 91/95/19 109/113/6 
f 91/95/19 110/114/34 109/113/6 
f 91/95/19 92/96/20 110/114/34 
f 92/96/20 111/115/35 110/114/34 
f 92/96/20 93/97/21 111/115/35 
f 93/97/21 112/116/36 111/115/35 
f 93/97/21 94/98/22 112/116/36 
f 94/98/22 113/117/37 112/116/36 
f 94/98/22 95/99/23 113/117/37 
f 95/99/23 114/118/38 113/117/37 
f 95/99/23 96/100/24 114/118/38 
f 96/100/24 115/119/39 114/118/38 
f 96/100/24 97/101/25 115/119/39 
f 97/101/25 116/120/40 115/119/39 
f 97/101/25 98/102/26 116/120/40 
f 98/102/26 117/121/41 116/120/40 
f 98/102/26 99/103/27 117/121/41 
f 99/103/27 101/104/29 117/121/41 
f 99/103/27 83/86/7 101/104/29 
f 118/122/5 101/104/5 100/105/5 
f 118/122/5 100/105/5 102/106/5 
f 118/122/5 102/106/5 103/107/5 
f 118/122/5 103/107/5 104/108/5 
f 118/122/5 104/139/5 105/109/5 
f 118/122/5 105/109/5 106/110/5 
f 118/122/5 106/110/5 107/111/5 
f 118/122/5 107/111/5 108/112/5 
f 118/122/5 108/112/5 109/113/5 
f 118/122/5 109/113/5 110/114/5 
f 118/122/5 110/114/5 111/115/5 
f 118/122/5 111/115/5 112/116/5 
f 118/122/5 112/116/5 113/117/5 
f 118/122/5 113/117/5 114/118/5 
f 118/122/5 114/118/5 115/119/5 
f 118/122/5 115/119/5 116/120/5 
f 118/122/5 116/120/5 117/121/5 
f 118/122/5 117/121/5 101/104/5 
# 228 faces

