# 3ds Max Wavefront OBJ Exporter v0.97b - (c)2007 guruware
# File Created: 20.12.2017 18:15:56

#
# object Cylinder001
#

v  0.0000 -0.5000 -0.0000
v  0.4698 -0.5000 -0.1710
v  0.5000 -0.5000 -0.0000
v  0.3830 -0.5000 -0.3214
v  0.2500 -0.5000 -0.4330
v  0.0868 -0.5000 -0.4924
v  -0.0868 -0.5000 -0.4924
v  -0.2500 -0.5000 -0.4330
v  -0.3830 -0.5000 -0.3214
v  -0.4698 -0.5000 -0.1710
v  -0.5000 -0.5000 -0.0000
v  -0.4698 -0.5000 0.1710
v  -0.3830 -0.5000 0.3214
v  -0.2500 -0.5000 0.4330
v  -0.0868 -0.5000 0.4924
v  0.0868 -0.5000 0.4924
v  0.2500 -0.5000 0.4330
v  0.3830 -0.5000 0.3214
v  0.4698 -0.5000 0.1710
v  0.3219 -0.3000 -0.1172
v  0.3426 -0.3000 -0.0000
v  0.2624 -0.3000 -0.2202
v  0.1713 -0.3000 -0.2967
v  0.0595 -0.3000 -0.3374
v  -0.0595 -0.3000 -0.3374
v  -0.1713 -0.3000 -0.2967
v  -0.2624 -0.3000 -0.2202
v  -0.3219 -0.3000 -0.1172
v  -0.3426 -0.3000 -0.0000
v  -0.3219 -0.3000 0.1172
v  -0.2624 -0.3000 0.2202
v  -0.1713 -0.3000 0.2967
v  -0.0595 -0.3000 0.3374
v  0.0595 -0.3000 0.3374
v  0.1713 -0.3000 0.2967
v  0.2624 -0.3000 0.2202
v  0.3219 -0.3000 0.1172
v  0.2691 -0.1000 -0.0980
v  0.2864 -0.1000 -0.0000
v  0.2194 -0.1000 -0.1841
v  0.1432 -0.1000 -0.2480
v  0.0497 -0.1000 -0.2820
v  -0.0497 -0.1000 -0.2820
v  -0.1432 -0.1000 -0.2480
v  -0.2194 -0.1000 -0.1841
v  -0.2691 -0.1000 -0.0980
v  -0.2864 -0.1000 -0.0000
v  -0.2691 -0.1000 0.0980
v  -0.2194 -0.1000 0.1841
v  -0.1432 -0.1000 0.2480
v  -0.0497 -0.1000 0.2820
v  0.0497 -0.1000 0.2820
v  0.1432 -0.1000 0.2480
v  0.2194 -0.1000 0.1841
v  0.2691 -0.1000 0.0980
v  0.3114 0.1000 -0.1133
v  0.3314 0.1000 -0.0000
v  0.2539 0.1000 -0.2130
v  0.1657 0.1000 -0.2870
v  0.0575 0.1000 -0.3264
v  -0.0575 0.1000 -0.3264
v  -0.1657 0.1000 -0.2870
v  -0.2539 0.1000 -0.2130
v  -0.3114 0.1000 -0.1133
v  -0.3314 0.1000 -0.0000
v  -0.3114 0.1000 0.1133
v  -0.2539 0.1000 0.2130
v  -0.1657 0.1000 0.2870
v  -0.0575 0.1000 0.3264
v  0.0575 0.1000 0.3264
v  0.1657 0.1000 0.2870
v  0.2539 0.1000 0.2130
v  0.3114 0.1000 0.1133
v  0.4488 0.3000 -0.1633
v  0.4776 0.3000 -0.0000
v  0.3659 0.3000 -0.3070
v  0.2388 0.3000 -0.4136
v  0.0829 0.3000 -0.4703
v  -0.0829 0.3000 -0.4703
v  -0.2388 0.3000 -0.4136
v  -0.3659 0.3000 -0.3070
v  -0.4488 0.3000 -0.1633
v  -0.4776 0.3000 -0.0000
v  -0.4488 0.3000 0.1633
v  -0.3659 0.3000 0.3070
v  -0.2388 0.3000 0.4136
v  -0.0829 0.3000 0.4703
v  0.0829 0.3000 0.4703
v  0.2388 0.3000 0.4136
v  0.3659 0.3000 0.3070
v  0.4488 0.3000 0.1633
v  0.6813 0.5000 -0.2480
v  0.7250 0.5000 -0.0000
v  0.5554 0.5000 -0.4660
v  0.3625 0.5000 -0.6279
v  0.1259 0.5000 -0.7140
v  -0.1259 0.5000 -0.7140
v  -0.3625 0.5000 -0.6279
v  -0.5554 0.5000 -0.4660
v  -0.6813 0.5000 -0.2480
v  -0.7250 0.5000 -0.0000
v  -0.6813 0.5000 0.2480
v  -0.5554 0.5000 0.4660
v  -0.3625 0.5000 0.6279
v  -0.1259 0.5000 0.7140
v  0.1259 0.5000 0.7140
v  0.3625 0.5000 0.6279
v  0.5554 0.5000 0.4660
v  0.6813 0.5000 0.2480
v  0.0000 0.5000 -0.0000
# 110 vertices

vn 0.0000 -1.0000 -0.0000
vn 0.7858 0.6184 0.0000
vn 0.8333 0.4622 -0.3033
vn 0.8868 0.4622 0.0000
vn 0.7384 0.6184 -0.2688
vn 0.6793 0.4622 -0.5700
vn 0.6020 0.6184 -0.5051
vn 0.4434 0.4622 -0.7680
vn 0.3929 0.6184 -0.6805
vn 0.1540 0.4622 -0.8733
vn 0.1365 0.6184 -0.7739
vn -0.1540 0.4622 -0.8733
vn -0.1365 0.6184 -0.7739
vn -0.4434 0.4622 -0.7680
vn -0.3929 0.6184 -0.6805
vn -0.6793 0.4622 -0.5700
vn -0.6020 0.6184 -0.5051
vn -0.8333 0.4622 -0.3033
vn -0.7384 0.6184 -0.2688
vn -0.8868 0.4622 -0.0000
vn -0.7858 0.6184 -0.0000
vn -0.8333 0.4622 0.3033
vn -0.7384 0.6184 0.2688
vn -0.6793 0.4622 0.5700
vn -0.6020 0.6184 0.5051
vn -0.4434 0.4622 0.7680
vn -0.3929 0.6184 0.6805
vn -0.1540 0.4622 0.8733
vn -0.1365 0.6184 0.7739
vn 0.1540 0.4622 0.8733
vn 0.1365 0.6184 0.7739
vn 0.4434 0.4622 0.7680
vn 0.3929 0.6184 0.6805
vn 0.6793 0.4622 0.5700
vn 0.6020 0.6184 0.5051
vn 0.8333 0.4622 0.3033
vn 0.7384 0.6184 0.2688
vn 0.9393 0.0270 -0.3419
vn 0.9996 0.0270 0.0000
vn 0.7658 0.0270 -0.6426
vn 0.4998 0.0270 -0.8657
vn 0.1736 0.0270 -0.9844
vn -0.1736 0.0270 -0.9844
vn -0.4998 0.0270 -0.8657
vn -0.7658 0.0270 -0.6426
vn -0.9393 0.0270 -0.3419
vn -0.9996 0.0270 -0.0000
vn -0.9393 0.0270 0.3419
vn -0.7658 0.0270 0.6426
vn -0.4998 0.0270 0.8657
vn -0.1736 0.0270 0.9844
vn 0.1736 0.0270 0.9844
vn 0.4998 0.0270 0.8657
vn 0.7658 0.0270 0.6426
vn 0.9393 0.0270 0.3419
vn 0.8518 -0.4222 -0.3100
vn 0.9065 -0.4222 0.0000
vn 0.6944 -0.4222 -0.5827
vn 0.4533 -0.4222 -0.7851
vn 0.1574 -0.4222 -0.8927
vn -0.1574 -0.4222 -0.8927
vn -0.4533 -0.4222 -0.7851
vn -0.6944 -0.4222 -0.5827
vn -0.8518 -0.4222 -0.3100
vn -0.9065 -0.4222 -0.0000
vn -0.8518 -0.4222 0.3100
vn -0.6944 -0.4222 0.5827
vn -0.4533 -0.4222 0.7851
vn -0.1574 -0.4222 0.8927
vn 0.1574 -0.4222 0.8927
vn 0.4533 -0.4222 0.7851
vn 0.6944 -0.4222 0.5827
vn 0.8518 -0.4222 0.3100
vn 0.6739 -0.6970 -0.2453
vn 0.7171 -0.6970 0.0000
vn 0.5493 -0.6970 -0.4610
vn 0.3586 -0.6970 -0.6210
vn 0.1245 -0.6970 -0.7062
vn -0.1245 -0.6970 -0.7062
vn -0.3586 -0.6970 -0.6210
vn -0.5493 -0.6970 -0.4610
vn -0.6739 -0.6970 -0.2453
vn -0.7171 -0.6970 -0.0000
vn -0.6739 -0.6970 0.2453
vn -0.5493 -0.6970 0.4610
vn -0.3586 -0.6970 0.6210
vn -0.1245 -0.6970 0.7062
vn 0.1245 -0.6970 0.7062
vn 0.3586 -0.6970 0.6210
vn 0.5493 -0.6970 0.4610
vn 0.6739 -0.6970 0.2453
vn 0.5908 -0.7777 -0.2150
vn 0.6287 -0.7777 0.0000
vn 0.4816 -0.7777 -0.4041
vn 0.3143 -0.7777 -0.5444
vn 0.1092 -0.7777 -0.6191
vn -0.1092 -0.7777 -0.6191
vn -0.3143 -0.7777 -0.5444
vn -0.4816 -0.7777 -0.4041
vn -0.5908 -0.7777 -0.2150
vn -0.6287 -0.7777 -0.0000
vn -0.5908 -0.7777 0.2150
vn -0.4816 -0.7777 0.4041
vn -0.3143 -0.7777 0.5444
vn -0.1092 -0.7777 0.6191
vn 0.1092 -0.7777 0.6191
vn 0.3143 -0.7777 0.5444
vn 0.4816 -0.7777 0.4041
vn 0.5908 -0.7777 0.2150
vn 0.0000 1.0000 -0.0000
# 110 vertex normals

vt 0.5000 0.0000 0.0000
vt 0.7500 0.0000 1.0000
vt 0.8056 0.0000 1.0000
vt 0.8611 0.0000 1.0000
vt 0.9167 0.0000 1.0000
vt 0.9722 0.0000 1.0000
vt 0.0278 0.0000 1.0000
vt 0.0833 0.0000 1.0000
vt 0.1389 0.0000 1.0000
vt 0.1944 0.0000 1.0000
vt 0.2500 0.0000 1.0000
vt 0.3056 0.0000 1.0000
vt 0.3611 0.0000 1.0000
vt 0.4167 0.0000 1.0000
vt 0.4722 0.0000 1.0000
vt 0.5278 0.0000 1.0000
vt 0.5833 0.0000 1.0000
vt 0.6389 0.0000 1.0000
vt 0.6944 0.0000 1.0000
vt 0.7500 0.2000 1.0000
vt 0.8056 0.2000 1.0000
vt 0.8611 0.2000 1.0000
vt 0.9167 0.2000 1.0000
vt 0.9722 0.2000 1.0000
vt 0.0278 0.2000 1.0000
vt 0.0833 0.2000 1.0000
vt 0.1389 0.2000 1.0000
vt 0.1944 0.2000 1.0000
vt 0.2500 0.2000 1.0000
vt 0.3056 0.2000 1.0000
vt 0.3611 0.2000 1.0000
vt 0.4167 0.2000 1.0000
vt 0.4722 0.2000 1.0000
vt 0.5278 0.2000 1.0000
vt 0.5833 0.2000 1.0000
vt 0.6389 0.2000 1.0000
vt 0.6944 0.2000 1.0000
vt 0.7500 0.4000 1.0000
vt 0.8056 0.4000 1.0000
vt 0.8611 0.4000 1.0000
vt 0.9167 0.4000 1.0000
vt 0.9722 0.4000 1.0000
vt 0.0278 0.4000 1.0000
vt 0.0833 0.4000 1.0000
vt 0.1389 0.4000 1.0000
vt 0.1944 0.4000 1.0000
vt 0.2500 0.4000 1.0000
vt 0.3056 0.4000 1.0000
vt 0.3611 0.4000 1.0000
vt 0.4167 0.4000 1.0000
vt 0.4722 0.4000 1.0000
vt 0.5278 0.4000 1.0000
vt 0.5833 0.4000 1.0000
vt 0.6389 0.4000 1.0000
vt 0.6944 0.4000 1.0000
vt 0.7500 0.6000 1.0000
vt 0.8056 0.6000 1.0000
vt 0.8611 0.6000 1.0000
vt 0.9167 0.6000 1.0000
vt 0.9722 0.6000 1.0000
vt 0.0278 0.6000 1.0000
vt 0.0833 0.6000 1.0000
vt 0.1389 0.6000 1.0000
vt 0.1944 0.6000 1.0000
vt 0.2500 0.6000 1.0000
vt 0.3056 0.6000 1.0000
vt 0.3611 0.6000 1.0000
vt 0.4167 0.6000 1.0000
vt 0.4722 0.6000 1.0000
vt 0.5278 0.6000 1.0000
vt 0.5833 0.6000 1.0000
vt 0.6389 0.6000 1.0000
vt 0.6944 0.6000 1.0000
vt 0.7500 0.8000 1.0000
vt 0.8056 0.8000 1.0000
vt 0.8611 0.8000 1.0000
vt 0.9167 0.8000 1.0000
vt 0.9722 0.8000 1.0000
vt 0.0278 0.8000 1.0000
vt 0.0833 0.8000 1.0000
vt 0.1389 0.8000 1.0000
vt 0.1944 0.8000 1.0000
vt 0.2500 0.8000 1.0000
vt 0.3056 0.8000 1.0000
vt 0.3611 0.8000 1.0000
vt 0.4167 0.8000 1.0000
vt 0.4722 0.8000 1.0000
vt 0.5278 0.8000 1.0000
vt 0.5833 0.8000 1.0000
vt 0.6389 0.8000 1.0000
vt 0.6944 0.8000 1.0000
vt 0.7500 1.0000 1.0000
vt 0.8056 1.0000 1.0000
vt 0.8611 1.0000 1.0000
vt 0.9167 1.0000 1.0000
vt 0.9722 1.0000 1.0000
vt 0.0278 1.0000 1.0000
vt 0.0833 1.0000 1.0000
vt 0.1389 1.0000 1.0000
vt 0.1944 1.0000 1.0000
vt 0.2500 1.0000 1.0000
vt 0.3056 1.0000 1.0000
vt 0.3611 1.0000 1.0000
vt 0.4167 1.0000 1.0000
vt 0.4722 1.0000 1.0000
vt 0.5278 1.0000 1.0000
vt 0.5833 1.0000 1.0000
vt 0.6389 1.0000 1.0000
vt 0.6944 1.0000 1.0000
vt 0.5000 1.0000 0.0000
vt -0.0278 0.0000 1.0000
vt -0.0278 0.0000 1.0000
vt -0.0278 0.2000 1.0000
vt -0.0278 0.0000 1.0000
vt -0.0278 0.2000 1.0000
vt -0.0278 0.4000 1.0000
vt -0.0278 0.2000 1.0000
vt -0.0278 0.4000 1.0000
vt -0.0278 0.6000 1.0000
vt -0.0278 0.4000 1.0000
vt -0.0278 0.6000 1.0000
vt -0.0278 0.8000 1.0000
vt -0.0278 0.6000 1.0000
vt -0.0278 0.8000 1.0000
vt -0.0278 1.0000 1.0000
vt -0.0278 0.8000 1.0000
vt -0.0278 1.0000 1.0000
# 127 texture coords

o Cylinder001
g Cylinder001
f 1/1/1 2/3/1 3/2/1 
f 1/1/1 4/4/1 2/3/1 
f 1/1/1 5/5/1 4/4/1 
f 1/1/1 6/6/1 5/5/1 
f 1/1/1 7/7/1 6/111/1 
f 1/1/1 8/8/1 7/7/1 
f 1/1/1 9/9/1 8/8/1 
f 1/1/1 10/10/1 9/9/1 
f 1/1/1 11/11/1 10/10/1 
f 1/1/1 12/12/1 11/11/1 
f 1/1/1 13/13/1 12/12/1 
f 1/1/1 14/14/1 13/13/1 
f 1/1/1 15/15/1 14/14/1 
f 1/1/1 16/16/1 15/15/1 
f 1/1/1 17/17/1 16/16/1 
f 1/1/1 18/18/1 17/17/1 
f 1/1/1 19/19/1 18/18/1 
f 1/1/1 3/2/1 19/19/1 
f 3/2/2 20/21/3 21/20/4 
f 3/2/2 2/3/5 20/21/3 
f 2/3/5 22/22/6 20/21/3 
f 2/3/5 4/4/7 22/22/6 
f 4/4/7 23/23/8 22/22/6 
f 4/4/7 5/5/9 23/23/8 
f 5/5/9 24/24/10 23/23/8 
f 5/5/9 6/6/11 24/24/10 
f 6/112/11 25/25/12 24/113/10 
f 6/114/11 7/7/13 25/25/12 
f 7/7/13 26/26/14 25/25/12 
f 7/7/13 8/8/15 26/26/14 
f 8/8/15 27/27/16 26/26/14 
f 8/8/15 9/9/17 27/27/16 
f 9/9/17 28/28/18 27/27/16 
f 9/9/17 10/10/19 28/28/18 
f 10/10/19 29/29/20 28/28/18 
f 10/10/19 11/11/21 29/29/20 
f 11/11/21 30/30/22 29/29/20 
f 11/11/21 12/12/23 30/30/22 
f 12/12/23 31/31/24 30/30/22 
f 12/12/23 13/13/25 31/31/24 
f 13/13/25 32/32/26 31/31/24 
f 13/13/25 14/14/27 32/32/26 
f 14/14/27 33/33/28 32/32/26 
f 14/14/27 15/15/29 33/33/28 
f 15/15/29 34/34/30 33/33/28 
f 15/15/29 16/16/31 34/34/30 
f 16/16/31 35/35/32 34/34/30 
f 16/16/31 17/17/33 35/35/32 
f 17/17/33 36/36/34 35/35/32 
f 17/17/33 18/18/35 36/36/34 
f 18/18/35 37/37/36 36/36/34 
f 18/18/35 19/19/37 37/37/36 
f 19/19/37 21/20/4 37/37/36 
f 19/19/37 3/2/2 21/20/4 
f 21/20/4 38/39/38 39/38/39 
f 21/20/4 20/21/3 38/39/38 
f 20/21/3 40/40/40 38/39/38 
f 20/21/3 22/22/6 40/40/40 
f 22/22/6 41/41/41 40/40/40 
f 22/22/6 23/23/8 41/41/41 
f 23/23/8 42/42/42 41/41/41 
f 23/23/8 24/24/10 42/42/42 
f 24/115/10 43/43/43 42/116/42 
f 24/117/10 25/25/12 43/43/43 
f 25/25/12 44/44/44 43/43/43 
f 25/25/12 26/26/14 44/44/44 
f 26/26/14 45/45/45 44/44/44 
f 26/26/14 27/27/16 45/45/45 
f 27/27/16 46/46/46 45/45/45 
f 27/27/16 28/28/18 46/46/46 
f 28/28/18 47/47/47 46/46/46 
f 28/28/18 29/29/20 47/47/47 
f 29/29/20 48/48/48 47/47/47 
f 29/29/20 30/30/22 48/48/48 
f 30/30/22 49/49/49 48/48/48 
f 30/30/22 31/31/24 49/49/49 
f 31/31/24 50/50/50 49/49/49 
f 31/31/24 32/32/26 50/50/50 
f 32/32/26 51/51/51 50/50/50 
f 32/32/26 33/33/28 51/51/51 
f 33/33/28 52/52/52 51/51/51 
f 33/33/28 34/34/30 52/52/52 
f 34/34/30 53/53/53 52/52/52 
f 34/34/30 35/35/32 53/53/53 
f 35/35/32 54/54/54 53/53/53 
f 35/35/32 36/36/34 54/54/54 
f 36/36/34 55/55/55 54/54/54 
f 36/36/34 37/37/36 55/55/55 
f 37/37/36 39/38/39 55/55/55 
f 37/37/36 21/20/4 39/38/39 
f 39/38/39 56/57/56 57/56/57 
f 39/38/39 38/39/38 56/57/56 
f 38/39/38 58/58/58 56/57/56 
f 38/39/38 40/40/40 58/58/58 
f 40/40/40 59/59/59 58/58/58 
f 40/40/40 41/41/41 59/59/59 
f 41/41/41 60/60/60 59/59/59 
f 41/41/41 42/42/42 60/60/60 
f 42/118/42 61/61/61 60/119/60 
f 42/120/42 43/43/43 61/61/61 
f 43/43/43 62/62/62 61/61/61 
f 43/43/43 44/44/44 62/62/62 
f 44/44/44 63/63/63 62/62/62 
f 44/44/44 45/45/45 63/63/63 
f 45/45/45 64/64/64 63/63/63 
f 45/45/45 46/46/46 64/64/64 
f 46/46/46 65/65/65 64/64/64 
f 46/46/46 47/47/47 65/65/65 
f 47/47/47 66/66/66 65/65/65 
f 47/47/47 48/48/48 66/66/66 
f 48/48/48 67/67/67 66/66/66 
f 48/48/48 49/49/49 67/67/67 
f 49/49/49 68/68/68 67/67/67 
f 49/49/49 50/50/50 68/68/68 
f 50/50/50 69/69/69 68/68/68 
f 50/50/50 51/51/51 69/69/69 
f 51/51/51 70/70/70 69/69/69 
f 51/51/51 52/52/52 70/70/70 
f 52/52/52 71/71/71 70/70/70 
f 52/52/52 53/53/53 71/71/71 
f 53/53/53 72/72/72 71/71/71 
f 53/53/53 54/54/54 72/72/72 
f 54/54/54 73/73/73 72/72/72 
f 54/54/54 55/55/55 73/73/73 
f 55/55/55 57/56/57 73/73/73 
f 55/55/55 39/38/39 57/56/57 
f 57/56/57 74/75/74 75/74/75 
f 57/56/57 56/57/56 74/75/74 
f 56/57/56 76/76/76 74/75/74 
f 56/57/56 58/58/58 76/76/76 
f 58/58/58 77/77/77 76/76/76 
f 58/58/58 59/59/59 77/77/77 
f 59/59/59 78/78/78 77/77/77 
f 59/59/59 60/60/60 78/78/78 
f 60/121/60 79/79/79 78/122/78 
f 60/123/60 61/61/61 79/79/79 
f 61/61/61 80/80/80 79/79/79 
f 61/61/61 62/62/62 80/80/80 
f 62/62/62 81/81/81 80/80/80 
f 62/62/62 63/63/63 81/81/81 
f 63/63/63 82/82/82 81/81/81 
f 63/63/63 64/64/64 82/82/82 
f 64/64/64 83/83/83 82/82/82 
f 64/64/64 65/65/65 83/83/83 
f 65/65/65 84/84/84 83/83/83 
f 65/65/65 66/66/66 84/84/84 
f 66/66/66 85/85/85 84/84/84 
f 66/66/66 67/67/67 85/85/85 
f 67/67/67 86/86/86 85/85/85 
f 67/67/67 68/68/68 86/86/86 
f 68/68/68 87/87/87 86/86/86 
f 68/68/68 69/69/69 87/87/87 
f 69/69/69 88/88/88 87/87/87 
f 69/69/69 70/70/70 88/88/88 
f 70/70/70 89/89/89 88/88/88 
f 70/70/70 71/71/71 89/89/89 
f 71/71/71 90/90/90 89/89/89 
f 71/71/71 72/72/72 90/90/90 
f 72/72/72 91/91/91 90/90/90 
f 72/72/72 73/73/73 91/91/91 
f 73/73/73 75/74/75 91/91/91 
f 73/73/73 57/56/57 75/74/75 
f 75/74/75 92/93/92 93/92/93 
f 75/74/75 74/75/74 92/93/92 
f 74/75/74 94/94/94 92/93/92 
f 74/75/74 76/76/76 94/94/94 
f 76/76/76 95/95/95 94/94/94 
f 76/76/76 77/77/77 95/95/95 
f 77/77/77 96/96/96 95/95/95 
f 77/77/77 78/78/78 96/96/96 
f 78/124/78 97/97/97 96/125/96 
f 78/126/78 79/79/79 97/97/97 
f 79/79/79 98/98/98 97/97/97 
f 79/79/79 80/80/80 98/98/98 
f 80/80/80 99/99/99 98/98/98 
f 80/80/80 81/81/81 99/99/99 
f 81/81/81 100/100/100 99/99/99 
f 81/81/81 82/82/82 100/100/100 
f 82/82/82 101/101/101 100/100/100 
f 82/82/82 83/83/83 101/101/101 
f 83/83/83 102/102/102 101/101/101 
f 83/83/83 84/84/84 102/102/102 
f 84/84/84 103/103/103 102/102/102 
f 84/84/84 85/85/85 103/103/103 
f 85/85/85 104/104/104 103/103/103 
f 85/85/85 86/86/86 104/104/104 
f 86/86/86 105/105/105 104/104/104 
f 86/86/86 87/87/87 105/105/105 
f 87/87/87 106/106/106 105/105/105 
f 87/87/87 88/88/88 106/106/106 
f 88/88/88 107/107/107 106/106/106 
f 88/88/88 89/89/89 107/107/107 
f 89/89/89 108/108/108 107/107/107 
f 89/89/89 90/90/90 108/108/108 
f 90/90/90 109/109/109 108/108/108 
f 90/90/90 91/91/91 109/109/109 
f 91/91/91 93/92/93 109/109/109 
f 91/91/91 75/74/75 93/92/93 
f 110/110/110 93/92/110 92/93/110 
f 110/110/110 92/93/110 94/94/110 
f 110/110/110 94/94/110 95/95/110 
f 110/110/110 95/95/110 96/96/110 
f 110/110/110 96/127/110 97/97/110 
f 110/110/110 97/97/110 98/98/110 
f 110/110/110 98/98/110 99/99/110 
f 110/110/110 99/99/110 100/100/110 
f 110/110/110 100/100/110 101/101/110 
f 110/110/110 101/101/110 102/102/110 
f 110/110/110 102/102/110 103/103/110 
f 110/110/110 103/103/110 104/104/110 
f 110/110/110 104/104/110 105/105/110 
f 110/110/110 105/105/110 106/106/110 
f 110/110/110 106/106/110 107/107/110 
f 110/110/110 107/107/110 108/108/110 
f 110/110/110 108/108/110 109/109/110 
f 110/110/110 109/109/110 93/92/110 
# 216 faces

